<?xml version="1.0" encoding="UTF-8"?>
<svg version="1.1" xmlns="http://www.w3.org/2000/svg" width="1376" height="525">
<path d="M0 0 C454.08 0 908.16 0 1376 0 C1376 173.25 1376 346.5 1376 525 C921.92 525 467.84 525 0 525 C0 351.75 0 178.5 0 0 Z " fill="#FAF8F6" transform="translate(0,0)"/>
<path d="M0 0 C3.49235957 0.77579604 5.35927108 2.87857083 7.81494141 5.38232422 C8.84887445 6.40311753 9.88538428 7.42130677 10.92431641 8.43701172 C11.43800781 8.9471582 11.95169922 9.45730469 12.48095703 9.98291016 C14.72575225 12.13981545 17.13182745 14.06778481 19.56494141 16.00732422 C24.30444962 19.82205034 28.78143138 23.86051853 33.25634766 27.97998047 C35.92119307 30.37189719 38.65075966 32.63737306 41.43994141 34.88232422 C45.97560584 38.54053436 50.2594531 42.39225387 54.52172852 46.35864258 C57.75438116 49.34909421 61.06940907 52.18261429 64.50244141 54.94482422 C69.02021953 58.57981811 73.28062657 62.41192712 77.52197266 66.35888672 C80.75455887 69.34923779 84.06950007 72.18268751 87.50244141 74.94482422 C91.47873566 78.14414144 95.26912438 81.47067367 99.00244141 84.94482422 C102.75687552 88.43829042 106.57020421 91.78539536 110.56494141 95.00732422 C112.37958111 96.48386511 114.19202527 97.96310775 116.00244141 99.44482422 C116.50791504 99.85619629 117.01338867 100.26756836 117.53417969 100.69140625 C119.08153038 101.96470169 120.60472711 103.2671667 122.12744141 104.56982422 C123.03751953 105.33552734 123.94759766 106.10123047 124.88525391 106.89013672 C127.59222658 110.15648383 128.0694495 112.22331413 128.00244141 116.44482422 C126.02244141 118.42482422 126.02244141 118.42482422 124.00244141 120.44482422 C117.40244141 120.44482422 110.80244141 120.44482422 104.00244141 120.44482422 C104.00244141 142.88482422 104.00244141 165.32482422 104.00244141 188.44482422 C94.43244141 191.08482422 84.86244141 193.72482422 75.00244141 196.44482422 C75.02975342 193.91705322 75.05706543 191.38928223 75.08520508 188.78491211 C75.16761507 180.41094562 75.1891859 172.03760595 75.18122387 163.66326237 C75.17825131 158.58802659 75.19544074 153.51456449 75.25952148 148.43969727 C75.32067175 143.53709494 75.327796 138.63705516 75.29827309 133.73418999 C75.29637701 131.86872859 75.31358809 130.00314198 75.35066795 128.13804817 C75.81150739 117.58227829 75.81150739 117.58227829 71.57571411 108.3366394 C68.81906353 106.06763158 66.08118871 104.24000891 63.00244141 102.44482422 C61.25517273 100.99452209 61.25517273 100.99452209 59.90869141 99.69482422 C55.59549344 95.66170404 51.23259445 91.76729492 46.62744141 88.06982422 C41.8318365 84.20328237 37.33365473 80.09630439 32.84106445 75.88891602 C28.63445541 71.97160097 24.25136216 68.33622772 19.76806641 64.73779297 C15.64388745 61.31845251 11.74267231 57.67718157 7.82666016 54.02294922 C4.95238307 51.39912781 2.00926744 48.91424117 -0.99755859 46.44482422 C-10.39158356 50.67753432 -18.03747082 59.28133888 -25.44360352 66.28515625 C-29.88417098 70.46444747 -34.47807963 74.35679781 -39.24365234 78.16357422 C-43.6570947 81.81953214 -47.80835904 85.75137867 -51.99755859 89.65966797 C-54.95095525 92.41328685 -57.9696809 95.08209338 -61.02490234 97.72216797 C-64.29334428 100.57639152 -67.49274655 103.50732025 -70.70068359 106.42919922 C-72.99755859 108.44482422 -72.99755859 108.44482422 -75.10699463 109.76264954 C-77.19171863 111.29055329 -77.19171863 111.29055329 -77.51654053 113.70378113 C-77.5298642 115.02615532 -77.5298642 115.02615532 -77.54345703 116.37524414 C-77.56317566 117.37605515 -77.58289429 118.37686615 -77.60321045 119.40800476 C-77.60505341 121.02531242 -77.60505341 121.02531242 -77.60693359 122.67529297 C-77.62346985 123.78085037 -77.6400061 124.88640778 -77.65704346 126.02546692 C-77.70567941 129.56114164 -77.72692969 133.0963858 -77.74755859 136.63232422 C-77.77570511 139.02752836 -77.80563066 141.4227123 -77.83740234 143.81787109 C-77.91144247 149.69344356 -77.96299346 155.56889415 -77.99755859 161.44482422 C-82.28749192 162.94981431 -86.57978018 164.44797059 -90.87255859 165.94482422 C-92.70753906 166.58871094 -92.70753906 166.58871094 -94.57958984 167.24560547 C-95.74619141 167.65166016 -96.91279297 168.05771484 -98.11474609 168.47607422 C-99.19353027 168.853125 -100.27231445 169.23017578 -101.38378906 169.61865234 C-103.99755859 170.44482422 -103.99755859 170.44482422 -105.99755859 170.44482422 C-105.99755859 153.94482422 -105.99755859 137.44482422 -105.99755859 120.44482422 C-112.59755859 120.44482422 -119.19755859 120.44482422 -125.99755859 120.44482422 C-128.99755859 117.44482422 -128.99755859 117.44482422 -130.18505859 114.75732422 C-129.91941511 110.06428928 -127.67729919 108.5296865 -124.30615234 105.44482422 C-123.16339844 104.45482422 -123.16339844 104.45482422 -121.99755859 103.44482422 C-121.34916016 102.86732422 -120.70076172 102.28982422 -120.03271484 101.69482422 C-118.73936954 100.55223695 -117.43830954 99.41833337 -116.13037109 98.29248047 C-113.72379038 96.20765872 -111.35990915 94.07960889 -108.99755859 91.94482422 C-105.38079514 88.68091574 -101.73366251 85.45691473 -98.06005859 82.25732422 C-95.68791431 80.17271257 -93.34199794 78.06053778 -90.99755859 75.94482422 C-87.37732136 72.67778087 -83.72772294 69.44961646 -80.04833984 66.24951172 C-77.73667063 64.21524281 -75.46224429 62.14260112 -73.18505859 60.06982422 C-69.64595857 56.86829989 -66.02652754 53.81336359 -62.31005859 50.81982422 C-58.53003572 47.76182818 -55.04007677 44.60723636 -51.66162109 41.11669922 C-49.27603768 38.71991588 -46.72499933 36.53561449 -44.16552734 34.32763672 C-41.74912908 32.22907102 -39.37226835 30.09042722 -36.99755859 27.94482422 C-31.56927573 23.05114497 -26.08983593 18.22624033 -20.52880859 13.48388672 C-19.9071582 12.9531958 -19.28550781 12.42250488 -18.64501953 11.87573242 C-17.40486243 10.81796075 -16.16338005 9.76174037 -14.92041016 8.70727539 C-14.05367676 7.96828003 -14.05367676 7.96828003 -13.16943359 7.21435547 C-12.61191406 6.74336426 -12.05439453 6.27237305 -11.47998047 5.78710938 C-9.83151776 4.36265772 -9.83151776 4.36265772 -8.07568359 2.08154297 C-5.4544376 0.01706539 -3.29789197 -0.17774898 0 0 Z " fill="#14BDBA" transform="translate(232.99755859375,119.55517578125)"/>
<path d="M0 0 C11.93434567 5.80787457 23.7552574 11.25519767 36.41796875 15.28125 C37.19156738 15.53664551 37.96516602 15.79204102 38.76220703 16.05517578 C68.70844261 25.63969257 100.07168315 21.29310978 127.65234375 7.19921875 C128.52632813 6.74482422 128.52632813 6.74482422 129.41796875 6.28125 C124.85644918 23.15887242 111.56849345 39.95661469 96.54296875 48.65625 C79.18110282 58.27074368 56.99164116 60.67963351 37.73046875 55.59375 C35.28138926 54.86053793 32.84244931 54.09210405 30.41796875 53.28125 C29.3609375 52.96542969 28.30390625 52.64960938 27.21484375 52.32421875 C13.83108117 48.00844024 1.29478566 41.16244301 -11.27929688 34.94824219 C-43.0731362 19.24956938 -79.14646512 10.511644 -113.86499023 22.23339844 C-121.17175463 24.88081506 -127.56087001 28.42265514 -134.0078125 32.7421875 C-136.58203125 34.28125 -136.58203125 34.28125 -139.58203125 34.28125 C-125.11545567 11.2756642 -106.75265201 -5.61862904 -79.90234375 -12.6875 C-50.54435989 -19.26503163 -26.15136181 -12.74671888 0 0 Z " fill="#0BA4B3" transform="translate(234.58203125,307.71875)"/>
<path d="M0 0 C1.16781006 0.00523682 2.33562012 0.01047363 3.53881836 0.01586914 C4.79887695 0.0190918 6.05893555 0.02231445 7.35717773 0.02563477 C8.6976732 0.03399136 10.03816799 0.04245632 11.37866211 0.05102539 C12.72306153 0.05603879 14.06746271 0.06060197 15.41186523 0.06469727 C18.71334151 0.07653051 22.01473014 0.09301568 25.31616211 0.11352539 C23.20398422 7.51679626 20.70826779 14.72700402 18.02709961 21.94165039 C17.40319839 23.63170197 17.40319839 23.63170197 16.76669312 25.355896 C15.64374612 28.39607273 14.51814336 31.43524924 13.39134216 34.47399902 C12.21064052 37.66027499 11.03360483 40.84790461 9.85620117 44.03540039 C7.4675512 50.50026517 5.07514862 56.96373552 2.68151855 63.42675781 C-0.50330962 72.02650573 -3.68542812 80.62725689 -6.8666687 89.22833252 C-7.57530268 91.14419153 -8.28406225 93.06000408 -8.99295044 94.97576904 C-14.30264544 109.32749955 -19.5370066 123.70239779 -24.68383789 138.11352539 C-36.56383789 138.11352539 -48.44383789 138.11352539 -60.68383789 138.11352539 C-65.18322443 129.11475231 -65.18322443 129.11475231 -66.61230469 125.38964844 C-66.93818573 124.54635986 -67.26406677 123.70307129 -67.599823 122.83422852 C-67.9407901 121.94026367 -68.2817572 121.04629883 -68.63305664 120.12524414 C-69.00286652 119.16593994 -69.37267639 118.20663574 -69.75369263 117.21826172 C-70.54859951 115.15545201 -71.34180223 113.09198494 -72.13345337 111.02792358 C-74.25363727 105.50106104 -76.38710725 99.97933003 -78.51977539 94.45727539 C-78.95326797 93.33407394 -79.38676056 92.2108725 -79.83338928 91.05363464 C-83.99612474 80.27956731 -88.23648484 69.53698802 -92.49633789 58.80102539 C-97.63198425 45.84770409 -102.74849872 32.88739176 -107.80575562 19.90322876 C-108.42823924 18.30516196 -109.05129791 16.70731902 -109.67495728 15.10971069 C-110.52476797 12.93198946 -111.37229449 10.75339526 -112.21899414 8.57446289 C-112.69731689 7.34518066 -113.17563965 6.11589844 -113.66845703 4.84936523 C-114.68383789 2.11352539 -114.68383789 2.11352539 -114.68383789 1.11352539 C-104.45383789 1.11352539 -94.22383789 1.11352539 -83.68383789 1.11352539 C-82.26973633 4.92012695 -80.85563477 8.72672852 -79.39868164 12.64868164 C-77.47412322 17.82491821 -75.54814299 23.00062478 -73.62133789 28.17602539 C-73.37243679 28.84457676 -73.12353569 29.51312813 -72.86709213 30.20193863 C-64.73434868 52.04250271 -56.49334319 73.83796369 -48.05224609 95.56152344 C-47.60067139 96.73368408 -47.14909668 97.90584473 -46.68383789 99.11352539 C-46.40655853 99.81345612 -46.12927917 100.51338684 -45.84359741 101.23452759 C-43.68383789 106.78105532 -43.68383789 106.78105532 -43.68383789 110.11352539 C-43.02383789 110.11352539 -42.36383789 110.11352539 -41.68383789 110.11352539 C-41.55570206 109.39943008 -41.42756622 108.68533478 -41.29554749 107.94960022 C-40.68272968 105.10838736 -39.85595641 102.47890276 -38.89648438 99.73632812 C-38.52722336 98.67600372 -38.15796234 97.61567932 -37.7775116 96.52322388 C-37.37406021 95.37610931 -36.97060883 94.22899475 -36.55493164 93.04711914 C-36.13307083 91.84006317 -35.71121002 90.6330072 -35.27656555 89.38937378 C-34.13285982 86.1184726 -32.98451081 82.84922056 -31.83482361 79.58041763 C-31.12210943 77.55321991 -30.41055303 75.52561939 -29.69934082 73.49789429 C-23.36520486 55.44230881 -16.96380245 37.4118662 -10.43383789 19.42602539 C-9.92190384 18.0126741 -9.92190384 18.0126741 -9.39962769 16.57077026 C-8.45093935 13.95484249 -7.49806058 11.34049152 -6.54321289 8.72680664 C-6.26504227 7.95996552 -5.98687164 7.19312439 -5.70027161 6.40304565 C-3.40100079 0.14386113 -3.40100079 0.14386113 0 0 Z " fill="#042938" transform="translate(552.683837890625,118.886474609375)"/>
<path d="M0 0 C7.41313594 6.81600711 10.39392942 16.27275325 11.01928711 26.13671875 C11.12221106 29.98853002 11.16757158 33.83852969 11.19140625 37.69140625 C11.20762012 39.11670528 11.22480403 40.54199358 11.24290466 41.9672699 C11.28829573 45.69753001 11.32324449 49.42780557 11.35510254 53.15820312 C11.40723818 59.13045277 11.4726588 65.1025424 11.54331779 71.07459831 C11.56591228 73.14611792 11.5823339 75.21761807 11.59803772 77.28919983 C11.61152756 78.56089523 11.6250174 79.83259064 11.63891602 81.14282227 C11.64842789 82.25262955 11.65793976 83.36243683 11.66773987 84.50587463 C11.83124356 88.31123469 12.34006769 92.09554153 12.8125 95.875 C4.5625 95.875 -3.6875 95.875 -12.1875 95.875 C-12.8475 92.575 -13.5075 89.275 -14.1875 85.875 C-17.02944598 85.875 -17.77386768 87.19195421 -19.8125 89.125 C-23.64855894 92.56494416 -27.41327003 94.95986212 -32.1875 96.875 C-33.49074219 97.41060547 -33.49074219 97.41060547 -34.8203125 97.95703125 C-44.19700163 100.51332121 -57.37617449 100.61634765 -66.1484375 96.19921875 C-73.49129216 91.43058325 -78.58284122 86.26066269 -80.7578125 77.60546875 C-82.35924521 67.4290918 -82.26014623 58.41031055 -77.015625 49.3671875 C-70.47741837 40.45399129 -59.98819882 37.09980998 -49.47143555 35.26757812 C-43.00139081 34.49411653 -36.50413678 34.67034217 -30 34.75 C-28.55664689 34.76005821 -27.11328694 34.769179 -25.66992188 34.77734375 C-22.17563606 34.79911309 -18.68161363 34.83348325 -15.1875 34.875 C-15.32376382 32.78217565 -15.46703024 30.68980639 -15.61328125 28.59765625 C-15.69231689 27.43242432 -15.77135254 26.26719238 -15.8527832 25.06665039 C-16.24522685 21.32455277 -16.932697 18.90732127 -19.1875 15.875 C-25.77934659 10.68567396 -31.9811834 10.05890222 -40.1875 10.875 C-44.48874734 12.16818548 -47.36561516 13.81450343 -50.125 17.375 C-51.34648116 20.06821878 -51.34648116 20.06821878 -52.1875 23.875 C-60.7675 23.875 -69.3475 23.875 -78.1875 23.875 C-75.99339486 12.9044743 -73.24376375 4.78288001 -64.1875 -2.125 C-45.14318072 -13.79906013 -17.95147824 -14.24083749 0 0 Z " fill="#052938" transform="translate(896.1875,162.125)"/>
<path d="M0 0 C6.25784009 4.70221882 11.40066669 10.30111853 12.9375 18.1875 C12.9375 20.8275 12.9375 23.4675 12.9375 26.1875 C5.0175 26.1875 -2.9025 26.1875 -11.0625 26.1875 C-12.3825 23.5475 -13.7025 20.9075 -15.0625 18.1875 C-20.22569853 13.18565142 -26.88491876 13.85911768 -33.69140625 13.89453125 C-38.10092847 14.27774581 -39.92792269 15.14248204 -43.0625 18.1875 C-44.60836876 21.27923752 -44.35609521 23.78179552 -44.0625 27.1875 C-41.05331877 32.11161474 -35.30795615 32.78987059 -30.0625 34.1875 C-24.6244739 35.45874919 -19.16320166 36.62627541 -13.6953125 37.76171875 C-2.79551863 40.1596734 6.62165204 43.50319979 12.9375 53.1875 C17.03578177 61.03278225 17.25131768 70.5177723 14.8125 78.9375 C11.16189927 88.2147147 4.88329309 93.93016473 -4.0625 98.1875 C-21.0079149 104.18384202 -39.0283053 104.09970624 -55.5 96.4375 C-64.3850594 91.59325219 -68.39429941 86.50100692 -72.21484375 77.15234375 C-73.0625 74.1875 -73.0625 74.1875 -73.0625 68.1875 C-64.4825 68.1875 -55.9025 68.1875 -47.0625 68.1875 C-45.7425 71.1575 -44.4225 74.1275 -43.0625 77.1875 C-37.79967748 81.46831034 -30.51716503 81.75678009 -23.9765625 81.51171875 C-19.85894896 81.05359285 -15.60689003 80.44378629 -12.0625 78.1875 C-10.6486606 74.50224648 -10.10553829 70.02248833 -11.0625 66.1875 C-13.97098573 61.95523958 -16.46473573 60.85180882 -21.45703125 59.78125 C-23.59356094 59.40063942 -25.73313397 59.03683287 -27.875 58.6875 C-30.13133267 58.27564397 -32.38655624 57.85766514 -34.640625 57.43359375 C-35.73826172 57.22718262 -36.83589844 57.02077148 -37.96679688 56.80810547 C-48.70063234 54.65625927 -59.60731091 52.11087579 -66.64453125 43.1796875 C-71.26800628 35.66494848 -71.31627865 26.71832103 -70.0625 18.1875 C-67.78312744 10.295047 -62.69523824 4.09385032 -55.77734375 -0.24609375 C-38.93955047 -9.23870284 -16.63544251 -10.35896504 0 0 Z " fill="#052938" transform="translate(706.0625,158.8125)"/>
<path d="M0 0 C2.94923116 2.19490857 4.93030974 4.50037105 7.03125 7.51171875 C7.69125 6.78984375 8.35125 6.06796875 9.03125 5.32421875 C15.43266779 -1.07719904 21.70285768 -3.61218429 30.65625 -3.80078125 C38.65272719 -3.73421328 44.6982323 -2.2416437 50.90625 2.88671875 C58.64715844 12.44901741 59.32862315 19.69394175 59.2265625 31.6640625 C59.2237326 32.91933243 59.22090271 34.17460236 59.21798706 35.46791077 C59.20872127 38.78386222 59.19079299 42.09953176 59.1685791 45.41540527 C59.14801595 48.8075112 59.13896309 52.19964641 59.12890625 55.59179688 C59.10690121 62.23185795 59.07239964 68.87174984 59.03125 75.51171875 C52.43125 75.51171875 45.83125 75.51171875 39.03125 75.51171875 C39.02714111 73.97837891 39.02303223 72.44503906 39.01879883 70.86523438 C38.99696169 65.15461 38.94262286 59.44467012 38.87866211 53.734375 C38.85552232 51.26699402 38.84109589 48.79951482 38.83569336 46.33203125 C38.82637501 42.77672403 38.78531703 39.22295307 38.73828125 35.66796875 C38.7422139 34.57182251 38.74614655 33.47567627 38.75019836 32.34631348 C38.62292428 25.60473452 37.6800765 20.61613035 33.03125 15.51171875 C28.45305173 12.96827527 23.97933235 13.1416322 19.03125 14.51171875 C15.0187693 16.66656949 12.68433439 18.27069817 11.03125 22.51171875 C10.70645543 25.05493863 10.70645543 25.05493863 10.71240234 27.83105469 C10.69253265 28.89185242 10.67266296 29.95265015 10.65219116 31.04559326 C10.64063995 32.18425842 10.62908875 33.32292358 10.6171875 34.49609375 C10.59782135 35.66682434 10.5784552 36.83755493 10.5585022 38.04376221 C10.49872293 41.78300694 10.452327 45.52228249 10.40625 49.26171875 C10.36806876 51.79688843 10.32901695 54.33204515 10.2890625 56.8671875 C10.19302248 63.08192606 10.10898482 69.29672535 10.03125 75.51171875 C3.76125 75.51171875 -2.50875 75.51171875 -8.96875 75.51171875 C-8.98333252 73.96790527 -8.99791504 72.4240918 -9.01293945 70.83349609 C-9.0709819 65.09693426 -9.14821538 59.36076249 -9.23120117 53.62451172 C-9.26442236 51.1434564 -9.29246298 48.66232602 -9.31518555 46.18115234 C-9.3487822 42.61132874 -9.40110283 39.0421913 -9.45703125 35.47265625 C-9.46342117 34.36618744 -9.4698111 33.25971863 -9.47639465 32.11972046 C-9.58256813 26.53792872 -9.74857069 22.29387009 -12.96875 17.51171875 C-16.21581405 14.56906696 -18.88227651 13.59371675 -23.28125 13.26171875 C-28.18364866 13.59408476 -31.45215722 14.83823707 -34.78125 18.51171875 C-36.80870133 21.92637361 -37.10818734 24.73852173 -37.17407227 28.62573242 C-37.19401749 29.66658493 -37.21396271 30.70743744 -37.23451233 31.77983093 C-37.25958107 33.46275993 -37.25958107 33.46275993 -37.28515625 35.1796875 C-37.30593735 36.32963699 -37.32671844 37.47958649 -37.34812927 38.66438293 C-37.41358342 42.3426 -37.47249074 46.02088923 -37.53125 49.69921875 C-37.57443913 52.19076271 -37.61805355 54.68229934 -37.66210938 57.17382812 C-37.76926065 63.28638413 -37.87053997 69.39901281 -37.96875 75.51171875 C-44.23875 75.51171875 -50.50875 75.51171875 -56.96875 75.51171875 C-56.96875 49.77171875 -56.96875 24.03171875 -56.96875 -2.48828125 C-51.35875 -2.48828125 -45.74875 -2.48828125 -39.96875 -2.48828125 C-39.30875 0.48171875 -38.64875 3.45171875 -37.96875 6.51171875 C-37.1953125 5.39796875 -37.1953125 5.39796875 -36.40625 4.26171875 C-27.54816578 -5.73201729 -11.16079616 -6.4918631 0 0 Z " fill="#042938" transform="translate(689.96875,319.48828125)"/>
<path d="M0 0 C6.6 0 13.2 0 20 0 C20 13.53 20 27.06 20 41 C36.17 41 52.34 41 69 41 C69 27.47 69 13.94 69 0 C75.6 0 82.2 0 89 0 C89 34.32 89 68.64 89 104 C82.4 104 75.8 104 69 104 C69 89.15 69 74.3 69 59 C52.83 59 36.66 59 20 59 C20 73.85 20 88.7 20 104 C13.4 104 6.8 104 0 104 C0 69.68 0 35.36 0 0 Z " fill="#042A3A" transform="translate(442,291)"/>
<path d="M0 0 C9.07751771 6.6298299 14.81388596 14.03050169 17.25 25.25 C17.99683797 39.87078955 17.44937389 51.80293571 7.25 63.25 C4.43547217 65.68333946 1.52986194 67.50655179 -1.75 69.25 C-2.46414063 69.6625 -3.17828125 70.075 -3.9140625 70.5 C-12.87939934 74.93645534 -23.86834576 74.54185225 -33.44921875 72.4375 C-44.56576473 68.64866539 -52.46043405 61.50938677 -57.6328125 51.00390625 C-62.0394245 40.14145359 -62.2807721 28.08965854 -57.75 17.25 C-52.2014807 5.73811884 -44.23070005 -0.42423528 -32.5625 -5 C-21.28900282 -7.21773715 -9.82730346 -6.20846536 0 0 Z " fill="#052837" transform="translate(603.75,321.75)"/>
<path d="M0 0 C8.58 0 17.16 0 26 0 C26 8.58 26 17.16 26 26 C33.92 26 41.84 26 50 26 C50 32.93 50 39.86 50 47 C42.08 47 34.16 47 26 47 C26.07403547 54.29632303 26.15690384 61.59142866 26.26245117 68.88720703 C26.29567236 71.36826235 26.32371298 73.84939273 26.34643555 76.33056641 C26.3800322 79.90039001 26.43235283 83.46952745 26.48828125 87.0390625 C26.49467117 88.14553131 26.5010611 89.25200012 26.50764465 90.39199829 C26.63223205 96.9418532 27.04098121 101.91119968 31.78125 106.859375 C34.79653246 108.409485 37.12629023 108.32737866 40.5 108.25 C41.6240625 108.23453125 42.748125 108.2190625 43.90625 108.203125 C47.18440113 108.08030546 47.18440113 108.08030546 51 107 C51 114.26 51 121.52 51 129 C38.26689291 131.54662142 24.56538288 133.25220691 12.65234375 126.7109375 C6.25940886 122.24185778 2.26965598 117.17445766 0.42312622 109.55258179 C-0.46678154 104.18405997 -0.24014844 98.73865501 -0.1953125 93.3125 C-0.1924826 92.01425293 -0.18965271 90.71600586 -0.18673706 89.37841797 C-0.17915637 85.95237308 -0.15955685 82.52650188 -0.1373291 79.1005249 C-0.11674969 75.59438424 -0.10770966 72.0882151 -0.09765625 68.58203125 C-0.07630474 61.72127629 -0.04116905 54.8606644 0 48 C-6.27 48 -12.54 48 -19 48 C-19 40.74 -19 33.48 -19 26 C-12.73 26 -6.46 26 0 26 C0 17.42 0 8.84 0 0 Z " fill="#052837" transform="translate(750,129)"/>
<path d="M0 0 C7.28217055 6.53329486 10.65994644 13.63978577 13 23 C13 28.28 13 33.56 13 39 C-5.48 39 -23.96 39 -43 39 C-39.81893272 48.725128 -39.81893272 48.725128 -32.73828125 55.10546875 C-26.87257957 57.02165375 -19.72473052 57.00813046 -13.9375 54.75 C-10.92368805 53.30576829 -10.92368805 53.30576829 -9.921875 50.90625 C-7.56991463 48.57341126 -6.78187394 48.69890231 -3.55078125 48.609375 C-1.80426041 48.63593805 -0.05796044 48.68360355 1.6875 48.75 C3.02651367 48.77707031 3.02651367 48.77707031 4.39257812 48.8046875 C6.59613504 48.85182241 8.79752601 48.91759343 11 49 C10.13979695 56.1888398 6.78606143 60.36057338 1.625 65.25 C-9.7216345 72.814423 -20.71213212 74.28708343 -34 71.875 C-44.00637546 69.55920805 -51.12002224 64.4152409 -57 56 C-63.19069256 44.5782663 -63.75535379 31.10777852 -61.31640625 18.453125 C-57.81811729 8.17599394 -51.3992351 1.28706974 -42 -4 C-28.90473573 -10.07379034 -11.65754866 -8.47445913 0 0 Z " fill="#052736" transform="translate(822,323)"/>
<path d="M0 0 C5.94484127 4.01126664 8.58508457 9.48887439 10.25094604 16.33598328 C11.12921901 21.31831743 11.05042368 26.35978071 11.1015625 31.40625 C11.12092865 32.59351685 11.1402948 33.78078369 11.1602478 35.00402832 C11.21973652 38.77344719 11.26630624 42.5428971 11.3125 46.3125 C11.350708 48.87761704 11.38976136 51.44272163 11.4296875 54.0078125 C11.52541292 60.27593988 11.60955723 66.54412729 11.6875 72.8125 C5.7475 72.8125 -0.1925 72.8125 -6.3125 72.8125 C-6.9725 69.8425 -7.6325 66.8725 -8.3125 63.8125 C-8.80878906 64.28300781 -9.30507812 64.75351562 -9.81640625 65.23828125 C-17.60915731 72.38040414 -24.92620667 75.24457154 -35.5546875 75.0859375 C-42.20205772 74.4268498 -48.338765 72.4299772 -52.875 67.375 C-58.34870637 60.37450312 -58.17730091 52.28935061 -57.3125 43.8125 C-55.28452068 37.8281503 -50.8767429 33.64305296 -45.3125 30.8125 C-36.2999026 27.34388361 -27.44346323 26.66044635 -17.875 26.75 C-16.95267578 26.75451172 -16.03035156 26.75902344 -15.08007812 26.76367188 C-12.82414952 26.77536062 -10.56836033 26.79174545 -8.3125 26.8125 C-9.14296802 19.23064002 -9.14296802 19.23064002 -12.75 12.6875 C-17.36951872 9.30736435 -21.79233143 9.31238216 -27.3125 9.8125 C-30.73170069 10.68808114 -30.73170069 10.68808114 -33.3125 12.8125 C-34.3025 15.1225 -35.2925 17.4325 -36.3125 19.8125 C-42.5825 19.8125 -48.8525 19.8125 -55.3125 19.8125 C-53.13778642 10.02628887 -50.54933445 4.31402545 -42.3125 -1.1875 C-29.46148383 -8.25664981 -12.59131241 -6.90190458 0 0 Z " fill="#052837" transform="translate(1038.3125,321.1875)"/>
<path d="M0 0 C20.84651888 10.9759882 42.47190098 16.04914534 65.921875 16.828125 C62.2345497 20.0006162 58.441004 22.29519245 54.046875 24.328125 C53.07645264 24.77986084 53.07645264 24.77986084 52.08642578 25.24072266 C28.7392321 35.71175596 3.14397806 35.45358413 -20.54150391 26.50146484 C-33.80809441 21.21820325 -45.25446987 13.50429416 -56.79931641 5.21582031 C-72.05344021 -5.65156507 -88.25825631 -14.03325356 -107.078125 -16.171875 C-103.78248735 -18.36896677 -101.01079723 -19.17579382 -97.203125 -20.234375 C-95.98882812 -20.57597656 -94.77453125 -20.91757812 -93.5234375 -21.26953125 C-60.44894956 -29.93189714 -28.55672509 -15.22087515 0 0 Z " fill="#02819D" transform="translate(233.078125,364.171875)"/>
<path d="M0 0 C6.6 0 13.2 0 20 0 C23.55039726 8.60861756 26.69928788 17.34529374 29.80102539 26.12304688 C30.39373613 27.79589174 30.9901143 29.46744155 31.59008789 31.13769531 C32.46779647 33.58122071 33.33465391 36.02836023 34.19921875 38.4765625 C34.59919319 39.58156601 34.59919319 39.58156601 35.00724792 40.70889282 C36.67794575 45.49152007 37.52699278 49.95293122 38 55 C38.66 55 39.32 55 40 55 C40.1124707 54.33282959 40.22494141 53.66565918 40.34082031 52.97827148 C41.14670283 49.33717487 42.32554723 45.86476364 43.546875 42.34765625 C43.79995422 41.61107285 44.05303345 40.87448944 44.31378174 40.11558533 C45.12286592 37.76351523 45.93645685 35.413031 46.75 33.0625 C47.28152553 31.5176729 47.81277797 29.97275181 48.34375 28.42773438 C49.88544077 23.94818427 51.4392453 19.47294085 53 15 C53.24596924 14.29413757 53.49193848 13.58827515 53.74536133 12.86102295 C54.43602785 10.88392902 55.1311122 8.908458 55.828125 6.93359375 C56.22418945 5.80880615 56.62025391 4.68401855 57.02832031 3.52514648 C58 1 58 1 59 0 C60.41570123 -0.08651611 61.835595 -0.10704904 63.25390625 -0.09765625 C64.0229126 -0.09515869 64.79191895 -0.09266113 65.58422852 -0.09008789 C66.56705811 -0.08098389 67.5498877 -0.07187988 68.5625 -0.0625 C70.24601009 -0.05101141 71.92952267 -0.0398852 73.61303711 -0.02905273 C74.44105331 -0.02356918 75.26906952 -0.01808563 76.12217712 -0.01243591 C77.05169945 -0.00628014 77.05169945 -0.00628014 78 0 C72.8846128 14.88707465 67.46939341 29.65322793 61.93920898 44.39086914 C60.56378399 48.05907566 59.19483325 51.729656 57.82617188 55.40039062 C53.88349358 65.94327424 49.91161155 76.47260323 45.609375 86.875 C45.30459732 87.62415176 44.99981964 88.37330353 44.68580627 89.14515686 C41.16744057 97.48810388 36.31919398 103.98091606 27.75 107.625 C21.49797312 109.52277837 15.48337889 109.27885501 9 109 C9 103.39 9 97.78 9 92 C10.876875 91.773125 12.75375 91.54625 14.6875 91.3125 C18.58423728 90.64317807 20.75009782 90.16830147 24.0625 87.9375 C26.84797292 83.71436364 29.3826601 79.04440378 28.72875977 73.84204102 C28.0323323 71.59021533 27.18985184 69.47406291 26.25 67.3125 C25.92543823 66.5036586 25.60087646 65.6948172 25.26647949 64.86146545 C24.20355722 62.22955335 23.10219144 59.61567813 22 57 C21.2582142 55.18141848 20.5193082 53.3616598 19.78320312 51.54077148 C18.2803063 47.83256628 16.76339406 44.13061403 15.234375 40.43310547 C12.19238676 33.06202049 9.26681685 25.64579279 6.3515625 18.22387695 C5.51094638 16.09028335 4.66271696 13.95986163 3.8125 11.83007812 C3.30200837 10.54430059 2.79158737 9.25849501 2.28125 7.97265625 C1.83845703 6.86156494 1.39566406 5.75047363 0.93945312 4.60571289 C0 2 0 2 0 0 Z " fill="#052837" transform="translate(1053,317)"/>
<path d="M0 0 C5.60166181 3.7312274 9.11339967 7.51481136 11 14 C11 15.98 11 17.96 11 20 C5.39 20 -0.22 20 -6 20 C-6.99 18.02 -7.98 16.04 -9 14 C-12.14154241 11.64384319 -15.1550338 11.73077517 -19 11.75 C-20.03125 11.74484375 -21.0625 11.7396875 -22.125 11.734375 C-24.97555974 11.99774193 -26.62483772 12.43855073 -29 14 C-30.41441874 16.82883747 -30.31900332 18.87376745 -30 22 C-27.08523153 24.79083545 -24.31356549 25.62627252 -20.421875 26.46484375 C-19.34292969 26.70783203 -18.26398437 26.95082031 -17.15234375 27.20117188 C-14.89984801 27.6886523 -12.64724525 28.17563854 -10.39453125 28.66210938 C-1.0487482 30.76796655 6.28623636 32.93351016 12 41 C15.20189742 46.18617188 14.55581583 52.12523779 14 58 C12.3239823 64.21230514 8.36131324 68.58456983 3 72 C-8.02623481 77.31773728 -20.4583027 79.0820292 -32.4375 75.875 C-38.75039982 73.607466 -44.04567017 70.19862106 -48.5 65.1875 C-50.46216869 61.01789153 -50.72175606 57.59102493 -51 53 C-45.06 53 -39.12 53 -33 53 C-32.34 54.98 -31.68 56.96 -31 59 C-25.06614241 62.73148352 -17.61654036 62.47554705 -11 61 C-7.81384059 60.25969228 -7.81384059 60.25969228 -6 58 C-5.30126463 54.87898202 -5.05378888 52.07240318 -6 49 C-9.40403296 46.59153243 -12.37830618 45.49333667 -16.45703125 44.75390625 C-17.48763672 44.55603516 -18.51824219 44.35816406 -19.58007812 44.15429688 C-21.72299606 43.76196809 -23.86622309 43.37132361 -26.00976562 42.98242188 C-35.25592982 41.20231924 -42.45347564 38.99352041 -48 31 C-50.82193293 26.02802293 -50.80527819 20.28577015 -49.46484375 14.81640625 C-47.08562513 7.9387743 -43.37870877 3.96549194 -37.29296875 0.11328125 C-27.00602954 -4.88122927 -10.28429444 -5.37976955 0 0 Z " fill="#062736" transform="translate(897,319)"/>
<path d="M0 0 C5.99114368 4.7053086 7.08153386 10.50823702 8.125 17.8125 C2.515 17.8125 -3.095 17.8125 -8.875 17.8125 C-9.865 15.8325 -10.855 13.8525 -11.875 11.8125 C-16.53315093 8.2959528 -23.3739756 9.13791167 -28.875 9.8125 C-32.38869948 11.65209345 -32.38869948 11.65209345 -33.875 14.8125 C-34.29274107 17.97274942 -34.29274107 17.97274942 -32.875 20.8125 C-26.91669489 24.61298499 -19.92472809 25.46346542 -13.10546875 26.83007812 C-5.74422682 28.39017672 1.69419664 30.21032124 6.5625 36.375 C7.03558594 36.95378906 7.50867187 37.53257812 7.99609375 38.12890625 C11.41870128 43.23321021 10.6108608 49.9544069 10.125 55.8125 C8.46116046 62.02684043 4.47849675 66.39559014 -0.875 69.8125 C-12.08436303 75.29457911 -23.57605759 76.58547162 -35.6875 73.1875 C-42.60008317 70.80816884 -48.28974156 67.69987928 -52.3125 61.4375 C-53.875 57.8125 -53.875 57.8125 -54.875 49.8125 C-48.605 49.8125 -42.335 49.8125 -35.875 49.8125 C-35.215 52.1225 -34.555 54.4325 -33.875 56.8125 C-30.04830018 59.31510622 -25.8560637 59.17382192 -21.375 59.25 C-19.44140625 59.30994141 -19.44140625 59.30994141 -17.46875 59.37109375 C-13.01700393 58.67913757 -11.60351814 57.32353655 -8.875 53.8125 C-8.04150049 50.76909873 -8.04150049 50.76909873 -8.875 47.8125 C-13.33749857 42.78855909 -19.39367146 42.41534609 -25.6875 41.3125 C-43.87462272 38.09059066 -43.87462272 38.09059066 -49.3125 31.3125 C-49.78558594 30.7453125 -50.25867187 30.178125 -50.74609375 29.59375 C-53.85772102 24.68405437 -53.41738765 18.39909278 -52.875 12.8125 C-51.1130138 6.60309079 -47.26535901 2.23077644 -41.875 -1.1875 C-29.51915276 -7.94230953 -11.95666208 -7.43523524 0 0 Z " fill="#062837" transform="translate(1186.875,321.1875)"/>
<path d="M0 0 C9.24 0 18.48 0 28 0 C28 33.99 28 67.98 28 103 C18.76 103 9.52 103 0 103 C0 69.01 0 35.02 0 0 Z " fill="#042838" transform="translate(589,155)"/>
<path d="M0 0 C6.27 0 12.54 0 19 0 C19 6.6 19 13.2 19 20 C24.94 20 30.88 20 37 20 C37 24.95 37 29.9 37 35 C31.06 35 25.12 35 19 35 C19.02809813 40.60685482 19.07116358 46.20943514 19.15258789 51.81518555 C19.17575277 53.72102307 19.19016007 55.62698833 19.19555664 57.53295898 C19.20485741 60.27668723 19.24587071 63.01841063 19.29296875 65.76171875 C19.2890361 66.61086349 19.28510345 67.46000824 19.28105164 68.33488464 C19.38795492 72.69117287 19.60610841 74.48921789 22.34960938 78.046875 C26.99970091 81.47361895 31.39221796 80.30811989 37 80 C37 85.61 37 91.22 37 97 C29.23531944 99.58822685 19.75189177 98.19182882 12 96 C5.87166883 92.76869811 2.23360443 88.52931339 0 82 C-0.24050903 79.61442566 -0.24050903 79.61442566 -0.22705078 77.11791992 C-0.22689972 76.17732224 -0.22674866 75.23672455 -0.22659302 74.2676239 C-0.21627045 73.2653627 -0.20594788 72.2631015 -0.1953125 71.23046875 C-0.1924826 70.19432938 -0.18965271 69.15819 -0.18673706 68.09065247 C-0.17556454 64.78948293 -0.15046505 61.48858719 -0.125 58.1875 C-0.11496643 55.94596747 -0.10584124 53.70443067 -0.09765625 51.46289062 C-0.07563474 45.97515533 -0.04112476 40.48762405 0 35 C-4.29 35 -8.58 35 -13 35 C-13 30.05 -13 25.1 -13 20 C-8.71 20 -4.42 20 0 20 C0 13.4 0 6.8 0 0 Z " fill="#052736" transform="translate(932,297)"/>
<path d="M0 0 C5.97262092 3.57010048 9.78319829 8.17223649 12.0390625 14.75390625 C13.78146644 22.19068827 13.2157668 30.27718647 9.578125 37.0546875 C6.19065083 41.42912946 2.90164372 44.35721821 -2.421875 46.0546875 C-8.31908155 46.80271075 -13.83560699 46.81250028 -18.859375 43.3828125 C-25.0627623 38.10993329 -27.91786284 33.32265018 -28.70703125 25.07421875 C-29.06371088 17.27299503 -27.96153377 11.49207248 -23.421875 5.0546875 C-17.00570871 -1.20498693 -8.59046799 -3.35305364 0 0 Z " fill="#F8F7F5" transform="translate(590.421875,332.9453125)"/>
<path d="M0 0 C1.20527344 0.00322266 2.41054688 0.00644531 3.65234375 0.00976562 C4.90660156 0.01814453 6.16085937 0.02652344 7.453125 0.03515625 C9.35771484 0.04192383 9.35771484 0.04192383 11.30078125 0.04882812 C14.43494336 0.06061069 17.56901041 0.07706209 20.703125 0.09765625 C20.8989097 7.79036348 20.13223921 14.12553697 14.90234375 20.18359375 C8.35070923 26.21364183 2.19963412 28.67185655 -6.7109375 28.37890625 C-11.69718759 27.83659506 -14.31058756 26.16180848 -17.671875 22.53515625 C-19.85085794 17.92576927 -19.97610492 14.11221785 -19.296875 9.09765625 C-17.87320873 5.38030543 -16.78381226 4.38774653 -13.359375 2.34765625 C-8.69755337 0.44487191 -5.05455858 -0.02384226 0 0 Z " fill="#F6F5F4" transform="translate(860.296875,212.90234375)"/>
<path d="M0 0 C4.85901474 2.29698879 7.66907123 5.15884024 10 10 C10.81503266 15.10642912 10.61497311 18.83367169 8.1875 23.4375 C2.81552831 29.73038112 2.81552831 29.73038112 -2.48828125 30.23828125 C-8.52143861 30.39682895 -12.36551304 30.29537816 -17 26 C-20.85357182 21.74078904 -21.74313247 18.1328345 -21.5234375 12.5390625 C-20.62363281 8.17433825 -18.21797097 5.01131229 -15 2 C-10.38182658 -0.9564039 -5.29111445 -0.61435291 0 0 Z " fill="#052736" transform="translate(609,113)"/>
<path d="M0 0 C7.26 0 14.52 0 22 0 C22 7.92 22 15.84 22 24 C14.74 24 7.48 24 0 24 C0 16.08 0 8.16 0 0 Z " fill="#16C1BD" transform="translate(236,245)"/>
<path d="M0 0 C7.26 0 14.52 0 22 0 C22 7.92 22 15.84 22 24 C14.74 24 7.48 24 0 24 C0 16.08 0 8.16 0 0 Z " fill="#16BFBB" transform="translate(204,245)"/>
<path d="M0 0 C6.6 0 13.2 0 20 0 C20 34.32 20 68.64 20 104 C13.4 104 6.8 104 0 104 C0 89.15 0 74.3 0 59 C-16.17 59 -32.34 59 -49 59 C-49 70.88 -49 82.76 -49 95 C-49.33 95 -49.66 95 -50 95 C-50.02464928 89.74894558 -50.04283568 84.49792455 -50.05493164 79.24682617 C-50.05997218 77.45905979 -50.06680454 75.67129755 -50.07543945 73.88354492 C-50.0875173 71.31948832 -50.09323094 68.75548603 -50.09765625 66.19140625 C-50.10281754 65.3872377 -50.10797882 64.58306915 -50.11329651 63.75453186 C-50.11349215 61.83598285 -50.06201983 59.91754632 -50 58 C-48.38976418 56.38976418 -46.64766243 56.85650681 -44.42016602 56.83886719 C-43.44568008 56.82925964 -42.47119415 56.8196521 -41.46717834 56.80975342 C-39.87660866 56.8033786 -39.87660866 56.8033786 -38.25390625 56.796875 C-37.17245834 56.79117493 -36.09101044 56.78547485 -34.97679138 56.77960205 C-32.68432601 56.77013618 -30.39184693 56.7636118 -28.09936523 56.75976562 C-24.58097788 56.75005102 -21.06317218 56.71903835 -17.54492188 56.6875 C-15.32292015 56.68097133 -13.10091424 56.67572032 -10.87890625 56.671875 C-9.82055069 56.6595282 -8.76219513 56.6471814 -7.67176819 56.63446045 C-6.6941301 56.63746155 -5.716492 56.64046265 -4.70922852 56.64355469 C-3.41469505 56.63808624 -3.41469505 56.63808624 -2.0940094 56.63250732 C-1.4029863 56.75377991 -0.7119632 56.87505249 0 57 C2.06037303 60.09055955 2.24799242 60.70926162 2.22705078 64.19604492 C2.22689972 65.03668991 2.22674866 65.8773349 2.22659302 66.74345398 C2.21627045 67.64666885 2.20594788 68.54988373 2.1953125 69.48046875 C2.1924826 70.40845779 2.18965271 71.33644684 2.18673706 72.29255676 C2.17553836 75.25766879 2.15043435 78.22247921 2.125 81.1875 C2.1149698 83.19726126 2.10584402 85.20702726 2.09765625 87.21679688 C2.07560004 92.14464753 2.04107229 97.07227262 2 102 C7.28 102 12.56 102 18 102 C18 68.67 18 35.34 18 1 C12.39 1 6.78 1 1 1 C1 14.2 1 27.4 1 41 C0.67 41 0.34 41 0 41 C0 27.47 0 13.94 0 0 Z " fill="#14242F" transform="translate(511,291)"/>
<path d="M0 0 C1.03125 0.00322266 2.0625 0.00644531 3.125 0.00976562 C4.74535156 0.02233398 4.74535156 0.02233398 6.3984375 0.03515625 C8.03039062 0.04192383 8.03039062 0.04192383 9.6953125 0.04882812 C12.38807539 0.06063849 15.08072938 0.07710847 17.7734375 0.09765625 C17.65190742 1.52940896 17.51959747 2.96024908 17.3828125 4.390625 C17.31030273 5.18750732 17.23779297 5.98438965 17.16308594 6.80541992 C16.38136955 11.40412616 13.68392399 14.2350901 10.3984375 17.34765625 C5.30476027 20.74344107 0.90145301 21.64001241 -5.1015625 20.7578125 C-8.92541975 19.56988626 -10.31180764 17.49480197 -12.2265625 14.09765625 C-12.95710367 11.00644071 -12.74811174 9.38341643 -12.2265625 6.09765625 C-8.3626779 1.31864109 -5.98425612 -0.03288053 0 0 Z " fill="#F7F6F4" transform="translate(1012.2265625,360.90234375)"/>
<path d="M0 0 C5.00324836 4.52674851 6.4955312 8.59818722 7.625 15.375 C-4.255 15.375 -16.135 15.375 -28.375 15.375 C-27.28557212 8.83843275 -25.92531177 3.94494955 -20.39453125 -0.05859375 C-13.45784364 -3.60674015 -6.9581107 -3.35020145 0 0 Z " fill="#F7F6F5" transform="translate(808.375,332.625)"/>
<path d="M0 0 C7.26 0 14.52 0 22 0 C22 7.26 22 14.52 22 22 C14.74 22 7.48 22 0 22 C0 14.74 0 7.48 0 0 Z " fill="#13BEBB" transform="translate(236,213)"/>
<path d="M0 0 C7.26 0 14.52 0 22 0 C22 7.26 22 14.52 22 22 C14.74 22 7.48 22 0 22 C0 14.74 0 7.48 0 0 Z " fill="#14BEBA" transform="translate(204,213)"/>
<path d="M0 0 C5.61 0 11.22 0 17 0 C17 1.98 17 3.96 17 6 C16.67 6 16.34 6 16 6 C16 4.35 16 2.7 16 1 C11.38 1 6.76 1 2 1 C2 25.75 2 50.5 2 76 C7.28 76 12.56 76 18 76 C17.98952637 74.47076904 17.97905273 72.94153809 17.96826172 71.3659668 C17.93211254 65.70241631 17.90911799 60.03887606 17.89013672 54.37524414 C17.88006755 51.92210171 17.86641139 49.46897131 17.84912109 47.01586914 C17.82491321 43.49362217 17.81352612 39.97153361 17.8046875 36.44921875 C17.79436493 35.34913986 17.78404236 34.24906097 17.77340698 33.11564636 C17.77325592 32.09481461 17.77310486 31.07398285 17.77294922 30.0222168 C17.768508 29.12286911 17.76406677 28.22352142 17.75949097 27.29692078 C18 25 18 25 20 22 C19.67 40.48 19.34 58.96 19 78 C12.73 78 6.46 78 0 78 C0 52.26 0 26.52 0 0 Z " fill="#12222C" transform="translate(633,317)"/>
<path d="M0 0 C0.66 0 1.32 0 2 0 C2.95024883 27.74423309 3.14692351 55.2481114 2 83 C3.89391932 82.53928625 5.7869824 82.07505188 7.6796875 81.609375 C8.73397949 81.35124023 9.78827148 81.09310547 10.87451172 80.82714844 C14.41688672 79.88967254 17.82774753 78.73468774 21.2578125 77.453125 C23 77 23 77 25 78 C25 77.34 25 76.68 25 76 C25.66 76 26.32 76 27 76 C26.99214478 74.49324707 26.99214478 74.49324707 26.98413086 72.95605469 C26.88436464 51.94273577 27.02032717 30.9952225 28 10 C28.33 10 28.66 10 29 10 C29.33 32.44 29.66 54.88 30 78 C20.43 80.64 10.86 83.28 1 86 C0.67 57.62 0.34 29.24 0 0 Z " fill="#059BA3" transform="translate(307,230)"/>
<path d="M0 0 C0.33 0 0.66 0 1 0 C1 18.81 1 37.62 1 57 C-5.6 57 -12.2 57 -19 57 C-19.33 38.85 -19.66 20.7 -20 2 C-17.18847122 4.81152878 -17.07881988 7.46127714 -16.87974548 11.34761047 C-16.88196609 12.15369247 -16.88418671 12.95977448 -16.88647461 13.7902832 C-16.88658791 15.17114861 -16.88658791 15.17114861 -16.88670349 16.57991028 C-16.89186478 17.5602977 -16.89702606 18.54068512 -16.90234375 19.55078125 C-16.90446617 21.07169624 -16.90446617 21.07169624 -16.90663147 22.62333679 C-16.91221672 25.85308821 -16.92476655 29.08276962 -16.9375 32.3125 C-16.9425169 34.50585837 -16.94707948 36.69921783 -16.95117188 38.89257812 C-16.96218133 44.26174561 -16.97943586 49.63086095 -17 55 C-11.39 55 -5.78 55 0 55 C0 36.85 0 18.7 0 0 Z " fill="#0F2732" transform="translate(748,338)"/>
<path d="M0 0 C0.33 0 0.66 0 1 0 C1.33 2.64 1.66 5.28 2 8 C2.33 8 2.66 8 3 8 C3 21.53 3 35.06 3 49 C-3.27 49 -9.54 49 -16 49 C-15.67 48.01 -15.34 47.02 -15 46 C-10.05 46 -5.1 46 0 46 C0 30.82 0 15.64 0 0 Z " fill="#133340" transform="translate(697,346)"/>
<path d="M0 0 C0.33 0 0.66 0 1 0 C1.042721 1.66611905 1.04063832 3.33382885 1 5 C0.67 5.33 0.34 5.66 0 6 C-7.26 6 -14.52 6 -22 6 C-22 22.83 -22 39.66 -22 57 C-22.66 56.67 -23.32 56.34 -24 56 C-24 38.84 -24 21.68 -24 4 C-16.08 4 -8.16 4 0 4 C0 2.68 0 1.36 0 0 Z " fill="#C2CDD0" transform="translate(800,172)"/>
<path d="M0 0 C7.26 0 14.52 0 22 0 C22 7.92 22 15.84 22 24 C14.74 24 7.48 24 0 24 C0 16.08 0 8.16 0 0 Z M2 2 C1.67 8.6 1.34 15.2 1 22 C7.6 22 14.2 22 21 22 C21 15.4 21 8.8 21 2 C14.73 2 8.46 2 2 2 Z " fill="#16B8B5" transform="translate(236,245)"/>
<path d="M0 0 C0.495 0.99 0.495 0.99 1 2 C0.00390625 4.1640625 0.00390625 4.1640625 -1.4375 6.625 C-1.91058594 7.44226563 -2.38367188 8.25953125 -2.87109375 9.1015625 C-3.24363281 9.72804688 -3.61617188 10.35453125 -4 11 C-4.495 9.515 -4.495 9.515 -5 8 C-6.66842534 8.32441604 -8.33480481 8.65939189 -10 9 C-10.721875 9.144375 -11.44375 9.28875 -12.1875 9.4375 C-14.22656623 9.91606861 -14.22656623 9.91606861 -16 12 C-18.625 12.125 -18.625 12.125 -21 12 C-21.33 12.99 -21.66 13.98 -22 15 C-27.55377135 15.6270387 -33.10792564 16.21310029 -38.671875 16.7421875 C-40.58386996 16.95391849 -42.48347752 17.27471806 -44.375 17.625 C-49.64296501 18.1699619 -54.7484491 17.56051036 -60 17 C-60 16.67 -60 16.34 -60 16 C-58.69289063 15.90203125 -57.38578125 15.8040625 -56.0390625 15.703125 C-35.69946464 14.05365775 -17.76057626 10.53973591 0 0 Z " fill="#107795" transform="translate(363,314)"/>
<path d="M0 0 C0 3.85550554 -0.97602609 4.46628134 -3.625 7.1875 C-16.3551543 19.45800979 -32.90210426 25.24363847 -50.375 25.0625 C-51.20644531 25.05798828 -52.03789062 25.05347656 -52.89453125 25.04882812 C-54.92971897 25.03713164 -56.96486923 25.01919935 -59 25 C-59 24.67 -59 24.34 -59 24 C-58.21753906 23.93941406 -57.43507813 23.87882812 -56.62890625 23.81640625 C-55.61699219 23.73261719 -54.60507812 23.64882813 -53.5625 23.5625 C-52.55316406 23.48128906 -51.54382813 23.40007812 -50.50390625 23.31640625 C-48.06359221 23.26788532 -48.06359221 23.26788532 -47 22 C-45.11455456 22 -43.22899746 22.00392757 -41.34375 22.03125 C-37.53181414 21.98042419 -33.77696177 21.48960616 -30 21 C-30 20.34 -30 19.68 -30 19 C-29.0925 18.855625 -28.185 18.71125 -27.25 18.5625 C-24.78523044 18.13590527 -22.41152893 17.64925779 -20 17 C-20 16.01 -20 15.02 -20 14 C-19.05125 13.855625 -18.1025 13.71125 -17.125 13.5625 C-10.12278524 11.61902815 -4.96914875 5.01754955 0 0 Z " fill="#077293" transform="translate(347,340)"/>
<path d="M0 0 C0.33 0 0.66 0 1 0 C1 2.64 1 5.28 1 8 C-6.92 8 -14.84 8 -23 8 C-22.67 7.01 -22.34 6.02 -22 5 C-15.07 5 -8.14 5 -1 5 C-0.67 3.35 -0.34 1.7 0 0 Z " fill="#263B46" transform="translate(718,177)"/>
<path d="M0 0 C0.33 0.99 0.66 1.98 1 3 C0.13375 3.92232422 0.13375 3.92232422 -0.75 4.86328125 C-1.4925 5.67152344 -2.235 6.47976563 -3 7.3125 C-3.7425 8.11300781 -4.485 8.91351563 -5.25 9.73828125 C-7.30597638 11.91883085 -7.30597638 11.91883085 -7 15 C-6.34 15.66 -5.68 16.32 -5 17 C-8.3 19.31 -11.6 21.62 -15 24 C-15.66 23.67 -16.32 23.34 -17 23 C-11.7829346 14.85455456 -6.26623313 7.368626 0 0 Z " fill="#16B6B2" transform="translate(112,319)"/>
<path d="M0 0 C-4.06066664 4.06066664 -11.93077927 3.88952727 -17.49609375 4.08984375 C-19.33081296 4.0655658 -21.16542338 4.03335594 -23 4 C-23.60199219 4.17273438 -24.20398438 4.34546875 -24.82421875 4.5234375 C-27.73656286 5.16132975 -30.28972302 4.85209231 -33.25 4.5625 C-34.32765625 4.46066406 -35.4053125 4.35882813 -36.515625 4.25390625 C-37.33546875 4.17011719 -38.1553125 4.08632813 -39 4 C-39 3.67 -39 3.34 -39 3 C-38.13217896 2.92483154 -38.13217896 2.92483154 -37.24682617 2.84814453 C-24.36920696 1.82657225 -24.36920696 1.82657225 -11.625 -0.1875 C-7.41058448 -1.0545807 -4.19531057 -0.93229124 0 0 Z " fill="#0A809D" transform="translate(342,327)"/>
<path d="M0 0 C1.39613065 0.14295891 2.79189308 0.28951558 4.1875 0.4375 C4.96480469 0.51871094 5.74210937 0.59992188 6.54296875 0.68359375 C9 1 9 1 11.29492188 1.5 C14.13936254 2.02575943 16.84854318 2.20823424 19.73828125 2.31640625 C20.80498047 2.35830078 21.87167969 2.40019531 22.97070312 2.44335938 C24.07349609 2.48267578 25.17628906 2.52199219 26.3125 2.5625 C27.99569336 2.62727539 27.99569336 2.62727539 29.71289062 2.69335938 C32.47514569 2.79914787 35.2374863 2.90123672 38 3 C38 3.33 38 3.66 38 4 C34.9792807 4.16899129 31.95845177 4.33526129 28.9375 4.5 C27.66616211 4.57154297 27.66616211 4.57154297 26.36914062 4.64453125 C21.57055312 4.90391436 16.80550212 5.05216285 12 5 C12 4.34 12 3.68 12 3 C8.37 3 4.74 3 1 3 C0.67 2.01 0.34 1.02 0 0 Z " fill="#1996AF" transform="translate(278,326)"/>
<path d="M0 0 C6.27 0 12.54 0 19 0 C15.46347948 2.82921641 12.79089648 4.83060132 8.875 6.8125 C8.02679688 7.25207031 7.17859375 7.69164062 6.3046875 8.14453125 C4 9 4 9 1 8 C2.79036458 7.0234375 4.58072917 6.046875 6.37109375 5.0703125 C8.16618315 4.08589976 8.16618315 4.08589976 9 2 C6.03 1.67 3.06 1.34 0 1 C0 0.67 0 0.34 0 0 Z " fill="#03698D" transform="translate(280,381)"/>
<path d="M0 0 C0.66 0.33 1.32 0.66 2 1 C2 1.66 2 2.32 2 3 C-8.49012402 6.11367639 -18.15018837 6.32878217 -29 6 C-29 5.67 -29 5.34 -29 5 C-28.21753906 4.93941406 -27.43507813 4.87882812 -26.62890625 4.81640625 C-25.61699219 4.73261719 -24.60507812 4.64882813 -23.5625 4.5625 C-22.55316406 4.48128906 -21.54382813 4.40007812 -20.50390625 4.31640625 C-18.06359221 4.26788532 -18.06359221 4.26788532 -17 3 C-15.11455456 3 -13.22899746 3.00392757 -11.34375 3.03125 C-7.53181414 2.98042419 -3.77696177 2.48960616 0 2 C0 1.34 0 0.68 0 0 Z " fill="#0F809F" transform="translate(317,359)"/>
<path d="M0 0 C0.66 0.33 1.32 0.66 2 1 C1.31292969 1.61488281 0.62585938 2.22976563 -0.08203125 2.86328125 C-1.43361328 4.07564453 -1.43361328 4.07564453 -2.8125 5.3125 C-3.70582031 6.11300781 -4.59914063 6.91351563 -5.51953125 7.73828125 C-9.47854934 11.34815759 -11.70241234 14.07659787 -14 19 C-15 16 -15 16 -13.99609375 13.6953125 C-10.29513545 7.59197776 -7.05962831 2.35320944 0 0 Z " fill="#061D2A" transform="translate(561,323)"/>
<path d="M0 0 C6.27 0 12.54 0 19 0 C18.34 1.65 17.68 3.3 17 5 C16.67 4.01 16.34 3.02 16 2 C13.54066009 2.11369211 11.0832091 2.24042651 8.625 2.375 C7.57699219 2.42140625 7.57699219 2.42140625 6.5078125 2.46875 C2.29814173 2.59499498 2.29814173 2.59499498 -1 5 C-0.67 3.35 -0.34 1.7 0 0 Z " fill="#061927" transform="translate(1112,317)"/>
<path d="M0 0 C-1 3 -1 3 -3 4.75 C-7.19776033 6.49906681 -10.61010852 5.7938148 -15 5 C-12.37575342 3.25050228 -10.44272784 2.34610019 -7.5 1.375 C-6.7265625 1.11460937 -5.953125 0.85421875 -5.15625 0.5859375 C-3 0 -3 0 0 0 Z " fill="#0C7593" transform="translate(141,343)"/>
<path d="M0 0 C-1.5625 2 -1.5625 2 -4 4 C-7.75 4.25 -7.75 4.25 -11 4 C-10.01 3.67 -9.02 3.34 -8 3 C-8 2.34 -8 1.68 -8 1 C-2.25 -1.125 -2.25 -1.125 0 0 Z M-23 4 C-19.04 4 -15.08 4 -11 4 C-11 4.33 -11 4.66 -11 5 C-14.96 5 -18.92 5 -23 5 C-23 4.67 -23 4.34 -23 4 Z " fill="#F1F2F0" transform="translate(866,259)"/>
<path d="M0 0 C0.81210938 0.38478516 0.81210938 0.38478516 1.640625 0.77734375 C-0.28778958 2.31110604 -2.22559294 3.82906195 -4.171875 5.33984375 C-4.71908203 5.77748047 -5.26628906 6.21511719 -5.83007812 6.66601562 C-7.2815708 7.78322514 -8.81748071 8.78863242 -10.359375 9.77734375 C-11.349375 9.44734375 -12.339375 9.11734375 -13.359375 8.77734375 C-11.6227135 7.2412966 -9.86954745 5.72389212 -8.109375 4.21484375 C-7.13484375 3.36792969 -6.1603125 2.52101563 -5.15625 1.6484375 C-2.359375 -0.22265625 -2.359375 -0.22265625 0 0 Z " fill="#16B8B5" transform="translate(126.359375,309.22265625)"/>
<path d="M0 0 C0.66 0.66 1.32 1.32 2 2 C-1.46222615 3.06723961 -4.64039266 3.10173486 -8.25 3.0625 C-9.32765625 3.05347656 -10.4053125 3.04445312 -11.515625 3.03515625 C-12.33546875 3.02355469 -13.1553125 3.01195312 -14 3 C-14 2.34 -14 1.68 -14 1 C-4.44705882 -0.31764706 -4.44705882 -0.31764706 0 0 Z " fill="#E9ECEB" transform="translate(687,238)"/>
<path d="M0 0 C3.75815393 1.25271798 3.92294906 2.73635233 5.68359375 6.078125 C8.05784744 9.54439448 11.53659561 11.70507428 15 14 C14.01 14.66 13.02 15.32 12 16 C8.40523299 12.50794062 5.07973809 8.95966325 2 5 C2 4.34 2 3.68 2 3 C1.34 3 0.68 3 0 3 C0 2.01 0 1.02 0 0 Z " fill="#0E1B26" transform="translate(561,364)"/>
<path d="M0 0 C-0.33 0.66 -0.66 1.32 -1 2 C-3.69797102 2.63860769 -6.33366623 3.16825242 -9.0625 3.625 C-9.82111328 3.7590625 -10.57972656 3.893125 -11.36132812 4.03125 C-13.23952258 4.36200122 -15.11960338 4.68200734 -17 5 C-17 4.34 -17 3.68 -17 3 C-16.30132813 2.79503906 -15.60265625 2.59007812 -14.8828125 2.37890625 C-13.97273437 2.10949219 -13.06265625 1.84007812 -12.125 1.5625 C-11.22007812 1.29566406 -10.31515625 1.02882812 -9.3828125 0.75390625 C-4.00327511 -0.9481441 -4.00327511 -0.9481441 0 0 Z " fill="#EFF2F2" transform="translate(851,196)"/>
<path d="M0 0 C6.27 0.33 12.54 0.66 19 1 C19 1.33 19 1.66 19 2 C11.08 2.495 11.08 2.495 3 3 C2.67 3.99 2.34 4.98 2 6 C1.34 4.02 0.68 2.04 0 0 Z " fill="#011321" transform="translate(1053,317)"/>
<path d="M0 0 C0 0.33 0 0.66 0 1 C-1.60875 1.2165625 -1.60875 1.2165625 -3.25 1.4375 C-6.71323377 1.86323848 -6.71323377 1.86323848 -8.84375 2.5625 C-11.7418303 3.15051629 -14.31315742 2.84979982 -17.25 2.5625 C-18.32765625 2.46066406 -19.4053125 2.35882813 -20.515625 2.25390625 C-21.33546875 2.17011719 -22.1553125 2.08632813 -23 2 C-23 1.67 -23 1.34 -23 1 C-15.31516461 0.32546899 -7.71589817 -0.1567564 0 0 Z " fill="#017495" transform="translate(326,329)"/>
<path d="M0 0 C2.31 0 4.62 0 7 0 C7 0.99 7 1.98 7 3 C6.01 3 5.02 3 4 3 C4 3.66 4 4.32 4 5 C3.01 5.33 2.02 5.66 1 6 C0.67 4.02 0.34 2.04 0 0 Z " fill="#F0F1F1" transform="translate(779,362)"/>
<path d="M0 0 C4.4008703 3.82180842 5.80805531 6.47371099 7 12 C6.01 12.33 5.02 12.66 4 13 C3.87882812 12.39671875 3.75765625 11.7934375 3.6328125 11.171875 C3.46523437 10.37265625 3.29765625 9.5734375 3.125 8.75 C2.96257812 7.96109375 2.80015625 7.1721875 2.6328125 6.359375 C2.00849925 4.03168856 1.15161458 2.10968048 0 0 Z " fill="#0A1F2A" transform="translate(1041,325)"/>
<path d="M0 0 C2.31082041 4.45658222 4 7.90360271 4 13 C3.34 13 2.68 13 2 13 C1.46605821 11.5882217 0.94834896 10.17029756 0.4375 8.75 C0.14746094 7.96109375 -0.14257812 7.1721875 -0.44140625 6.359375 C-1.04522837 3.80896548 -0.8473932 2.44677771 0 0 Z " fill="#F1F2F2" transform="translate(1076,320)"/>
<path d="M0 0 C0.99 0.495 0.99 0.495 2 1 C2.625 3.5625 2.625 3.5625 3 6 C3.66 6 4.32 6 5 6 C5.66 8.97 6.32 11.94 7 15 C6.34 15 5.68 15 5 15 C4.16260219 12.8765984 3.33019717 10.7512272 2.5 8.625 C1.80390625 6.84996094 1.80390625 6.84996094 1.09375 5.0390625 C0 2 0 2 0 0 Z " fill="#0D1D28" transform="translate(451,152)"/>
<path d="M0 0 C-0.66 0 -1.32 0 -2 0 C-2 0.66 -2 1.32 -2 2 C-5.3 2.66 -8.6 3.32 -12 4 C-11.67 3.01 -11.34 2.02 -11 1 C-9.2578125 0.234375 -9.2578125 0.234375 -7.125 -0.25 C-6.07699219 -0.50523437 -6.07699219 -0.50523437 -5.0078125 -0.765625 C-3 -1 -3 -1 0 0 Z " fill="#F0F2F1" transform="translate(577,315)"/>
<path d="M0 0 C3.19496956 0.49921399 6.1982808 1.32665761 9.25 2.375 C9.93578125 2.60960937 10.6215625 2.84421875 11.328125 3.0859375 C13 4 13 4 14 7 C3.25740319 4.29384966 3.25740319 4.29384966 0 0 Z " fill="#F1F2F3" transform="translate(647,254)"/>
<path d="M0 0 C0.99 0.33 1.98 0.66 3 1 C2.34 3.31 1.68 5.62 1 8 C0.34 8 -0.32 8 -1 8 C-1.625 5.125 -1.625 5.125 -2 2 C-1.34 1.34 -0.68 0.68 0 0 Z " fill="#E1E6E7" transform="translate(1092,364)"/>
<path d="M0 0 C5.75 -0.125 5.75 -0.125 8 1 C8 1.66 8 2.32 8 3 C5.03 3 2.06 3 -1 3 C-0.67 2.01 -0.34 1.02 0 0 Z " fill="#ECEDEE" transform="translate(582,332)"/>
<path d="M0 0 C0.33 0.99 0.66 1.98 1 3 C-1.8125 4.5625 -1.8125 4.5625 -5 6 C-5.99 5.67 -6.98 5.34 -8 5 C-5.64722731 2.27573689 -3.37503669 1.1858237 0 0 Z " fill="#16B5B5" transform="translate(145,298)"/>
<path d="M0 0 C4.455 0.99 4.455 0.99 9 2 C9 2.66 9 3.32 9 4 C10.65 4.33 12.3 4.66 14 5 C11.26980214 6.06528748 10.20701188 6.07998186 7.421875 5.00390625 C6.54015625 4.52824219 5.6584375 4.05257813 4.75 3.5625 C3.85796875 3.08941406 2.9659375 2.61632812 2.046875 2.12890625 C1.37140625 1.75636719 0.6959375 1.38382813 0 1 C0 0.67 0 0.34 0 0 Z " fill="#09151E" transform="translate(647,252)"/>
<path d="M0 0 C0.99 0.495 0.99 0.495 2 1 C2 1.66 2 2.32 2 3 C2.66 3 3.32 3 4 3 C4.625 5.875 4.625 5.875 5 9 C4.34 9.66 3.68 10.32 3 11 C2.49384702 9.73160474 1.99530901 8.46016898 1.5 7.1875 C1.2215625 6.47980469 0.943125 5.77210938 0.65625 5.04296875 C0 3 0 3 0 0 Z " fill="#EBEEED" transform="translate(484,160)"/>
<path d="M0 0 C3.63 0 7.26 0 11 0 C10.67 0.99 10.34 1.98 10 3 C8.5199159 2.88637738 7.04089926 2.75877092 5.5625 2.625 C4.73878906 2.55539063 3.91507813 2.48578125 3.06640625 2.4140625 C2.38449219 2.27742188 1.70257812 2.14078125 1 2 C0.67 1.34 0.34 0.68 0 0 Z " fill="#02111E" transform="translate(567,119)"/>
<path d="M0 0 C2.64 0.33 5.28 0.66 8 1 C8.33 1.99 8.66 2.98 9 4 C6.36 3.67 3.72 3.34 1 3 C0.67 2.01 0.34 1.02 0 0 Z " fill="#F0F1F1" transform="translate(873,343)"/>
<path d="M0 0 C-0.33 0.66 -0.66 1.32 -1 2 C-3.32156597 2.40729228 -5.6568787 2.74438677 -8 3 C-8 2.01 -8 1.02 -8 0 C-4.71023192 -1.09658936 -3.28696233 -0.79953138 0 0 Z " fill="#E8F5F4" transform="translate(132,328)"/>
<path d="M0 0 C3.5 0.1875 3.5 0.1875 7 1 C7.66 1.99 8.32 2.98 9 4 C5.37 3.34 1.74 2.68 -2 2 C-1.34 1.34 -0.68 0.68 0 0 Z " fill="#EAEEED" transform="translate(885,346)"/>
<path d="M0 0 C-2.76223278 2.76223278 -5.20706617 2.57856291 -9 3 C-8.67 2.01 -8.34 1.02 -8 0 C-5.04215769 -1.22393475 -3.00272755 -0.96516243 0 0 Z " fill="#14B1B5" transform="translate(165,295)"/>
<path d="M0 0 C0.66 0.99 1.32 1.98 2 3 C1.125 6.6875 1.125 6.6875 0 10 C-0.66 10 -1.32 10 -2 10 C-1.85950482 8.52031676 -1.71245174 7.04125484 -1.5625 5.5625 C-1.48128906 4.73878906 -1.40007812 3.91507812 -1.31640625 3.06640625 C-1 1 -1 1 0 0 Z " fill="#ECEEEE" transform="translate(1081,390)"/>
<path d="M0 0 C3.34998521 1.11666174 3.79340222 1.74694925 5.6875 4.5625 C6.12449219 5.20316406 6.56148437 5.84382813 7.01171875 6.50390625 C7.33785156 6.99761719 7.66398437 7.49132812 8 8 C6.68 7.67 5.36 7.34 4 7 C4 6.34 4 5.68 4 5 C3.34 5 2.68 5 2 5 C1.34 3.35 0.68 1.7 0 0 Z " fill="#E8EBEB" transform="translate(1133,348)"/>
<path d="M0 0 C1.99097846 2.98646769 2.94124926 5.59687262 4 9 C2.0625 8.375 2.0625 8.375 0 7 C-0.8125 3.9375 -0.8125 3.9375 -1 1 C-0.67 0.67 -0.34 0.34 0 0 Z " fill="#EEF0EF" transform="translate(451,154)"/>
<path d="M0 0 C4.21912747 0.4794463 6.79663178 1.16625119 10 4 C7.03 3.67 4.06 3.34 1 3 C0.67 2.01 0.34 1.02 0 0 Z " fill="#F2F3F2" transform="translate(994,394)"/>
<path d="M0 0 C-0.99 0.33 -1.98 0.66 -3 1 C-3 1.66 -3 2.32 -3 3 C-4.98 3.33 -6.96 3.66 -9 4 C-9.33 3.34 -9.66 2.68 -10 2 C-8.71211992 1.46987262 -7.41953322 0.9511671 -6.125 0.4375 C-5.40570312 0.14746094 -4.68640625 -0.14257812 -3.9453125 -0.44140625 C-2 -1 -2 -1 0 0 Z " fill="#E8ECEC" transform="translate(1186,392)"/>
<path d="M0 0 C0.33 0 0.66 0 1 0 C1.33 2.97 1.66 5.94 2 9 C1.01 8.67 0.02 8.34 -1 8 C-0.67 5.36 -0.34 2.72 0 0 Z " fill="#E8EBEC" transform="translate(542,355)"/>
<path d="M0 0 C0.91007813 0.10183594 1.82015625 0.20367187 2.7578125 0.30859375 C3.45648437 0.39238281 4.15515625 0.47617187 4.875 0.5625 C4.875 0.8925 4.875 1.2225 4.875 1.5625 C-1.065 2.0575 -1.065 2.0575 -7.125 2.5625 C-7.125 1.9025 -7.125 1.2425 -7.125 0.5625 C-4.50184968 -0.74907516 -2.89466564 -0.33399988 0 0 Z " fill="#05131D" transform="translate(798.125,328.4375)"/>
<path d="M0 0 C1.99097846 2.98646769 2.94124926 5.59687262 4 9 C2.68 9 1.36 9 0 9 C0 6.03 0 3.06 0 0 Z " fill="#EBEDED" transform="translate(475,215)"/>
<path d="M0 0 C0.66 0.33 1.32 0.66 2 1 C0.375 7.75 0.375 7.75 -3 10 C-2.01 6.7 -1.02 3.4 0 0 Z " fill="#ECF0F0" transform="translate(1106,382)"/>
<path d="M0 0 C2.25 0.25 2.25 0.25 4 1 C3.67 1.66 3.34 2.32 3 3 C0.67843403 3.40729228 -1.6568787 3.74438677 -4 4 C-2.25 1.9375 -2.25 1.9375 0 0 Z " fill="#EDF0EF" transform="translate(658,152)"/>
<path d="M0 0 C0.33 0 0.66 0 1 0 C1 1.98 1 3.96 1 6 C0.34 6 -0.32 6 -1 6 C-1.33 6.99 -1.66 7.98 -2 9 C-2.33 8.34 -2.66 7.68 -3 7 C-2.06421005 4.64018187 -1.06652192 2.30368736 0 0 Z " fill="#0A1925" transform="translate(543,138)"/>
</svg>
